# xmcd
# Copyright (C) 1995-1998 Ti Kan
#
# Track frame offsets:
#       150
#       53290
#       82867
#       120019
#       179257
#       212371
#       250279
#       283156
#       305089
#
# Disc length: 4300 seconds
#
# Revision: 0
# Processed by: cddbd v1.5.2PL0 Copyright (c) Steve Scherf et al.
# Submitted via: CD-Import v1.0
#
DISCID=6a10ca09
DTITLE=Fabio Di Casola Und Musikkollegium Winterthur - Mozart: Clarinet Concerto
DYEAR=10
DGENRE=
TTITLE0=Clarinet Concerto In A Major K.622 1. Allegro
TTITLE1=2. Adagio
TTITLE2=3. Rondo. Allegro
TTITLE3=Sinfonia Concertante In E Flat Major K.297b 1. Allegro
TTITLE4=2. Adagio
TTITLE5=3.andantion Con Variazioni
TTITLE6=Sinfonia No. 31 In D Major K.297 "paris" 1. Allegro Assai
TTITLE7=2. Andante
TTITLE8=2.allegro
EXTD=
EXTT0=
EXTT1=
EXTT2=
EXTT3=
EXTT4=
EXTT5=
EXTT6=
EXTT7=
EXTT8=
PLAYORDER=
